<svg width="180" height="55" xmlns="http://www.w3.org/2000/svg">
 <!-- Created with SVG Editor - http://github.com/mzalive/SVG Editor/ -->

 <g>
  <title>background</title>
  <rect fill="none" id="canvas_background" height="57" width="182" y="-1" x="-1"/>
  <g display="none" overflow="visible" y="0" x="0" height="100%" width="100%" id="canvasGrid">
   <rect fill="url(#gridpattern)" stroke-width="0" y="0" x="0" height="100%" width="100%"/>
  </g>
 </g>
 <g>
  <title>Layer 1</title>
  <defs>
   <style type="text/css">
    <![CDATA[
    .fil1 {fill:#385B35}
    .fil0 {fill:#F4F4F4}
   ]]>
   </style>
  </defs>
  <g stroke="null" id="svg_19">
   <g stroke="null" transform="matrix(0.05815711253692139,0,0,0.07196506127905097,-836630.3822806187,-713910.8849260717) " id="svg_5">
    <metadata stroke="null" transform="translate(0,-75.14541625976562) translate(-16.280277252197266,-1.862645149230957e-9) translate(0,76.19113159179688) translate(-1853.4110107421875,-2888.030029296875) translate(14378120,0) translate(0,9918877) " id="svg_6"/>
    <path stroke="null" id="svg_8" d="m14386091.308712,9920371.015686l181,0l-9,12l1,17c-13,19 -66,152 -66,181c-18,7 -55,134 -62,161l-189,0l-4,-2l51,-123l81,-203l-4,-1l10,-10l10,-32zm-172,183l-5,11c0,12 -79,157 -86,189l-95,0l-4,3l25,37l4,-3c0,18 32,64 42,78c6,8 39,70 40,79c9,2 9,4 21,4l102,0l5,-3l-66,-125l2653,1l-51,127l90,-1l100,-197l-2488,0c32,-137 100,-283 149,-416l41,0l0,-41l-360,1l-117,256z" class="fil0"/>
    <path stroke="null" id="svg_9" d="m14386036.308712,9920298.015686l360,-1l0,41l-41,0l-149,416l2488,0l-100,197l-90,1l51,-127l-2653,-1l66,125l-5,3l-121,1c0,0 -107,-195 -109,-199l95,0c7,-32 86,-177 86,-189l122,-267zm348,82l53,-1l0,-123l-428,0c-63,136 -122,271 -186,407l-22,47c-1,3 -6,3 -10,3l-99,0l0,66l132,213l209,1l-45,-93l-20,-32l4,-3l2520,0l0,25l-48,102l176,1l133,-276l-39,0l-2454,0l124,-337z" class="fil1"/>
    <path stroke="null" id="svg_10" d="m14386728.308712,9920377.015686c11,17 96,97 96,101l-61,57l-1,104l128,-103c7,0 37,30 37,37l0,70l82,0l0,-70c0,-10 29,-33 39,-39l126,113l-1,-106l-69,-63l148,-141l-4,-3l-90,0l-153,123l0,-123l-78,0l-1,125l-144,-127l-54,45z" class="fil1"/>
    <path stroke="null" id="svg_11" d="m14387257.308712,9920404.015686l0,227l214,-182l0,182l78,0l0,-305l-66,0c-6,0 -124,110 -144,123l0,-127c-11,2 -82,70 -82,82z" class="fil1"/>
    <polygon stroke="null" id="svg_12" points="14387809,9920527.85458374 14387812,9920636.85458374 14388033,9920437.85458374 14388036,9920440.85458374 14388036,9920514.85458374 14387970,9920514.85458374 14387896,9920592.85458374 14388036,9920592.85458374 14388036,9920634.85458374 14388118,9920634.85458374 14388118,9920325.85458374 14388044,9920325.85458374 " class="fil1"/>
    <path stroke="null" id="svg_13" d="m14388154.308712,9920540.015686l0,95l4,4l223,-198l0,194l86,0l0,-309l-74,0c-23,0 -100,86 -123,103c-15,12 -116,100 -116,111z" class="fil1"/>
    <path stroke="null" id="svg_14" d="m14386556.308712,9920400.015686l125,1l77,-75l-204,2l-76,68l-4,239l214,0l0,-66c0,-10 -3,-13 -12,-13l-115,0l0,-37l123,0l0,-78l-128,0l0,-41z" class="fil1"/>
    <path stroke="null" id="svg_15" d="m14388508.308712,9920404.015686l0,231l149,0c138,0 108,-235 -4,-235l-38,0l0,74l38,0c30,10 36,82 -13,82l-49,0l0,-222c-11,3 -83,61 -83,70z" class="fil1"/>
    <path stroke="null" id="svg_16" d="m14386099.308712,9920705.015686l-100,-1c19,-44 118,-296 133,-296l79,0l3,2c-10,26 -98,295 -115,295zm-105,-88l-51,123l4,2l189,0l136,-371l-181,0l-97,246z" class="fil1"/>
    <polygon stroke="null" id="svg_17" points="14387583,9920399.85458374 14387673,9920399.85458374 14387673,9920634.85458374 14387743,9920634.85458374 14387743,9920399.85458374 14387769,9920397.85458374 14387834,9920325.85458374 14387665,9920325.85458374 " class="fil1"/>
    <path stroke="null" id="svg_18" d="m14386215.308712,9920409.015686l-83,-1l-66,144l-67,152l100,1c16,0 35,-73 38,-90c8,-37 32,-51 34,-91l44,-115z" class="fil0"/>
   </g>
  </g>
 </g>
</svg>